<?xml version="1.0" encoding="UTF-8" standalone="no"?>
<svg
   xmlns:dc="http://purl.org/dc/elements/1.1/"
   xmlns:cc="http://creativecommons.org/ns#"
   xmlns:rdf="http://www.w3.org/1999/02/22-rdf-syntax-ns#"
   xmlns:svg="http://www.w3.org/2000/svg"
   xmlns="http://www.w3.org/2000/svg"
   xmlns:sodipodi="http://sodipodi.sourceforge.net/DTD/sodipodi-0.dtd"
   xmlns:inkscape="http://www.inkscape.org/namespaces/inkscape"
   width="12.7mm"
   height="12.7mm"
   viewBox="0 0 12.7 12.7"
   version="1.1"
   id="svg849"
   inkscape:version="1.0beta1 (fe3e306, 2019-09-17)"
   sodipodi:docname="favicon.svg">
  <defs
     id="defs843" />
  <sodipodi:namedview
     fit-margin-bottom="0"
     fit-margin-right="0"
     fit-margin-left="0"
     fit-margin-top="0"
     showguides="false"
     id="base"
     pagecolor="#ffffff"
     bordercolor="#666666"
     borderopacity="1.0"
     inkscape:pageopacity="0.0"
     inkscape:pageshadow="2"
     inkscape:zoom="10.24"
     inkscape:cx="29.849763"
     inkscape:cy="25.779759"
     inkscape:document-units="mm"
     inkscape:current-layer="layer1"
     inkscape:document-rotation="0"
     showgrid="false"
     showborder="true"
     inkscape:window-width="3840"
     inkscape:window-height="2080"
     inkscape:window-x="-11"
     inkscape:window-y="807"
     inkscape:window-maximized="1">
    <inkscape:grid
       originy="78.316666"
       originx="441.32501"
       empspacing="4"
       id="grid1041"
       type="xygrid" />
  </sodipodi:namedview>
  <metadata
     id="metadata846">
    <rdf:RDF>
      <cc:Work
         rdf:about="">
        <dc:format>image/svg+xml</dc:format>
        <dc:type
           rdf:resource="http://purl.org/dc/dcmitype/StillImage" />
        <dc:title></dc:title>
      </cc:Work>
    </rdf:RDF>
  </metadata>
  <g
     transform="translate(441.32501,78.316666)"
     inkscape:label="Layer 1"
     inkscape:groupmode="layer"
     id="layer1">
    <rect
       style="fill:#4f5d58;fill-opacity:1;stroke:none;stroke-width:0.264584px;stop-color:#000000"
       id="rect1412"
       width="12.7"
       height="12.7"
       x="-441.32501"
       y="-78.316666" />
    <g
       style="fill:#dac29e;fill-opacity:1;stroke-width:10.5701"
       transform="matrix(0.09460693,0,0,0.09460693,-613.29336,-129.86502)"
       id="g1028">
      <path
         inkscape:connector-curvature="0"
         style="fill:#dac29e;fill-opacity:1;stroke-width:10.5701"
         d="m 1888.4925,573.90216 c -0.5109,-1.34369 -0.6177,-2.93922 -0.2375,-3.54561 0.3803,-0.60638 0.9152,-2.97277 1.1887,-5.25862 0.5336,-4.46037 2.483,-6.4818 5.233,-5.42652 1.4869,0.57059 1.613,1.48122 1.0791,7.79644 -0.7086,8.38398 -0.9312,8.8774 -4.0031,8.8774 -1.6369,0 -2.608,-0.72766 -3.2602,-2.44309 z"
         id="path930" />
      <path
         inkscape:connector-curvature="0"
         style="fill:#dac29e;fill-opacity:1;stroke-width:10.5701"
         d="m 1863.6136,578.39817 c -0.8607,-0.95099 -1.5648,-2.19285 -1.5648,-2.75968 0,-0.56683 -1.5057,-2.44796 -3.346,-4.18029 -4.0814,-3.84185 -4.2684,-7.70594 -0.395,-8.15748 4.0598,-0.47325 10.2148,6.84265 11.0603,13.14641 0.4586,3.41874 0.3273,3.6801 -1.848,3.6801 -1.288,0 -3.0459,-0.77807 -3.9065,-1.72906 z"
         id="path928" />
      <path
         inkscape:connector-curvature="0"
         style="fill:#dac29e;fill-opacity:1;stroke-width:10.5701"
         d="m 1912.3492,588.4476 c -1.4732,-1.47314 -1.4501,-4.04679 0.047,-5.28097 0.65,-0.53576 3.9474,-1.19633 7.3276,-1.46792 3.3801,-0.27159 7.6993,-0.77793 9.5982,-1.12521 2.9992,-0.54851 3.538,-0.36208 4.1036,1.41991 0.431,1.35799 0.092,2.66952 -1.0042,3.88035 -0.9104,1.00597 -1.8381,1.64614 -2.0617,1.42259 -0.2236,-0.22354 -2.1234,0.19932 -4.2218,0.9397 -4.6526,1.64153 -12.2426,1.75798 -13.789,0.21155 z"
         id="path926" />
      <path
         inkscape:connector-curvature="0"
         style="fill:#dac29e;fill-opacity:1;stroke-width:10.5701"
         d="m 1844.5571,597.6385 c -1.5601,-0.74973 -5.2829,-2.26146 -8.2731,-3.35941 -4.9262,-1.80886 -5.4366,-2.25619 -5.4366,-4.76483 0,-2.45195 0.3276,-2.76855 2.865,-2.76855 1.5757,0 5.2986,1.02208 8.2731,2.27129 2.9744,1.24921 6.4718,2.41926 7.7718,2.60011 1.8914,0.2631 2.423,0.94297 2.6601,3.40169 0.2138,2.21743 -0.094,3.07286 -1.1046,3.07286 -0.7704,0 -1.9674,0.20475 -2.66,0.45499 -0.6926,0.25025 -2.5356,-0.15841 -4.0957,-0.90815 z"
         id="path924" />
      <path
         inkscape:connector-curvature="0"
         style="fill:#dac29e;fill-opacity:1;stroke-width:10.5701"
         d="m 1929.6518,616.12355 c -8.0036,-1.7751 -12.5189,-5.9275 -9.8901,-9.09505 1.4338,-1.72762 3.2294,-1.74145 5.905,-0.0455 1.1517,0.73007 3.9037,1.61864 6.1154,1.97461 3.2024,0.5154 4.1385,1.1141 4.5967,2.93962 0.602,2.39847 -0.984,5.19475 -2.8244,4.97988 -0.5864,-0.0684 -2.3426,-0.40756 -3.9026,-0.75357 z"
         id="path922" />
      <path
         inkscape:connector-curvature="0"
         style="fill:#dac29e;fill-opacity:1;stroke-width:10.5701"
         d="m 1838.0929,627.71385 c -1.3034,-1.3034 -0.5546,-5.0115 1.2018,-5.95152 1.0059,-0.53832 5.2606,-0.97876 9.455,-0.97876 h 7.6261 v 2.78069 c 0,1.52938 -0.4847,3.08025 -1.0771,3.44639 -1.4381,0.88878 -16.4084,1.50062 -17.2058,0.7032 z"
         id="path920" />
      <path
         inkscape:connector-curvature="0"
         style="fill:#dac29e;fill-opacity:1;stroke-width:10.5701"
         d="m 1875.7585,628.46031 c -6.4237,-2.94975 -8.9822,-7.67827 -8.9822,-16.60012 0,-7.22489 3.3234,-13.20712 9.5053,-17.10956 4.7445,-2.99508 16.429,-4.09395 20.5996,-1.93729 5.7437,2.97021 9.2827,12.33709 8.2177,21.7503 -0.9312,8.23126 -3.0316,11.27867 -9.8368,14.27234 -4.4985,1.97888 -14.8086,1.78029 -19.5036,-0.37567 z"
         id="path918" />
      <path
         inkscape:connector-curvature="0"
         style="fill:#dac29e;fill-opacity:1;stroke-width:10.5701"
         d="m 1925.6733,647.02109 c -4.3404,-4.47268 -8.321,-11.4577 -7.389,-12.96576 0.3332,-0.53917 1.5933,-0.98031 2.8002,-0.98031 1.5536,0 3.3409,1.51852 6.1205,5.20023 2.1594,2.86013 4.4986,5.20023 5.1982,5.20023 2.1248,0 3.5176,2.48861 2.8598,5.1098 -0.9857,3.92714 -4.8768,3.29247 -9.5897,-1.56419 z"
         id="path916" />
      <path
         inkscape:connector-curvature="0"
         style="fill:#dac29e;fill-opacity:1;stroke-width:10.5701"
         d="m 1860.543,661.90038 c -0.328,-1.30681 -0.1632,-2.90234 0.3662,-3.54561 0.5295,-0.64327 1.2698,-3.29696 1.6453,-5.89707 1.127,-7.80393 1.2526,-8.20229 3.0063,-9.53055 2.9874,-2.26268 3.5873,-0.96555 3.3594,7.26457 -0.2555,9.22531 -2.2048,14.08468 -5.6502,14.08468 -1.4871,0 -2.3108,-0.71764 -2.727,-2.37602 z"
         id="path914" />
      <path
         inkscape:connector-curvature="0"
         style="fill:#dac29e;fill-opacity:1;stroke-width:10.5701"
         d="m 1898.1667,664.0873 c -0.624,-0.62403 -1.1345,-1.93015 -1.1345,-2.9025 0,-0.97236 -1.3045,-3.66402 -2.899,-5.98147 -3.1323,-4.55256 -3.3728,-8.19498 -0.5763,-8.7282 1.8762,-0.35775 5.3662,2.29141 5.3662,4.0733 0,0.60879 1.0572,2.10005 2.3493,3.31391 2.7969,2.62756 4.0568,7.91873 2.3696,9.95167 -1.4096,1.69848 -3.9245,1.82401 -5.4753,0.27329 z"
         id="path912" />
    </g>
    <rect
       y="-84.666664"
       x="-449.26248"
       height="2.9104166"
       width="6.3499999"
       id="rect1053"
       style="font-variation-settings:normal;opacity:1;vector-effect:none;fill:#4f5d58;fill-opacity:1;stroke:none;stroke-width:32;stroke-linecap:butt;stroke-linejoin:miter;stroke-miterlimit:4;stroke-dasharray:none;stroke-dashoffset:0;stroke-opacity:1;stop-color:#000000;stop-opacity:1" />
    <rect
       style="font-variation-settings:normal;opacity:1;vector-effect:none;fill:#dac29e;fill-opacity:1;stroke:none;stroke-width:32;stroke-linecap:butt;stroke-linejoin:miter;stroke-miterlimit:4;stroke-dasharray:none;stroke-dashoffset:0;stroke-opacity:1;stop-color:#000000;stop-opacity:1"
       id="rect1053-8"
       width="6.3499999"
       height="2.9104166"
       x="-441.32501"
       y="-85.195831" />
  </g>
</svg>
